<svg preserveAspectRatio="none" width="100%" height="100%" overflow="visible" style="display: block;" viewBox="0 0 20 20" fill="none" xmlns="http://www.w3.org/2000/svg">
<g id="cancel_24dp_5F6368_FILL0_wght300_GRAD0_opsz24 1">
<path id="Vector" d="M10 10.8781L12.5608 13.4392C12.6762 13.5544 12.8213 13.6135 12.996 13.6162C13.1706 13.6189 13.3183 13.5599 13.4392 13.4392C13.5599 13.3183 13.6202 13.1719 13.6202 13C13.6202 12.8281 13.5599 12.6817 13.4392 12.5608L10.8781 10L13.4392 7.43917C13.5544 7.32375 13.6135 7.17868 13.6162 7.00396C13.6189 6.82937 13.5599 6.68167 13.4392 6.56083C13.3183 6.44014 13.1719 6.37979 13 6.37979C12.8281 6.37979 12.6817 6.44014 12.5608 6.56083L10 9.12187L7.43917 6.56083C7.32375 6.44555 7.17868 6.38653 7.00396 6.38375C6.82937 6.38111 6.68167 6.44014 6.56083 6.56083C6.44014 6.68167 6.37979 6.82805 6.37979 7C6.37979 7.17194 6.44014 7.31833 6.56083 7.43917L9.12187 10L6.56083 12.5608C6.44556 12.6762 6.38653 12.8213 6.38375 12.996C6.38111 13.1706 6.44014 13.3183 6.56083 13.4392C6.68167 13.5599 6.82805 13.6202 7 13.6202C7.17194 13.6202 7.31833 13.5599 7.43917 13.4392L10 10.8781ZM10.0015 17.9167C8.90646 17.9167 7.87722 17.7089 6.91375 17.2933C5.95028 16.8778 5.11222 16.3138 4.39958 15.6015C3.68694 14.8891 3.12271 14.0514 2.70687 13.0883C2.29118 12.1253 2.08333 11.0963 2.08333 10.0015C2.08333 8.90646 2.29111 7.87722 2.70667 6.91375C3.12222 5.95028 3.68618 5.11222 4.39854 4.39958C5.1109 3.68694 5.94861 3.12271 6.91167 2.70687C7.87472 2.29118 8.90368 2.08333 9.99854 2.08333C11.0935 2.08333 12.1228 2.29111 13.0862 2.70667C14.0497 3.12222 14.8878 3.68618 15.6004 4.39854C16.3131 5.1109 16.8773 5.94861 17.2931 6.91167C17.7088 7.87472 17.9167 8.90368 17.9167 9.99854C17.9167 11.0935 17.7089 12.1228 17.2933 13.0862C16.8778 14.0497 16.3138 14.8878 15.6015 15.6004C14.8891 16.3131 14.0514 16.8773 13.0883 17.2931C12.1253 17.7088 11.0963 17.9167 10.0015 17.9167ZM10 16.6667C11.8611 16.6667 13.4375 16.0208 14.7292 14.7292C16.0208 13.4375 16.6667 11.8611 16.6667 10C16.6667 8.13889 16.0208 6.5625 14.7292 5.27083C13.4375 3.97917 11.8611 3.33333 10 3.33333C8.13889 3.33333 6.5625 3.97917 5.27083 5.27083C3.97917 6.5625 3.33333 8.13889 3.33333 10C3.33333 11.8611 3.97917 13.4375 5.27083 14.7292C6.5625 16.0208 8.13889 16.6667 10 16.6667Z" fill="#C70036"/>
</g>
</svg>
