<svg preserveAspectRatio="none" width="100%" height="100%" overflow="visible" style="display: block;" viewBox="0 0 20 20" fill="none" xmlns="http://www.w3.org/2000/svg">
<g id="deployed_code_history_24dp_5F6368_FILL0_wght300_GRAD0_opsz24 1">
<path id="Vector" d="M9.87187 3.40542L4.85417 6.30771L10 9.28208L15.1458 6.30771L10.1281 3.40542C10.0855 3.37875 10.0428 3.36542 10 3.36542C9.95722 3.36542 9.91451 3.37875 9.87187 3.40542ZM2.91667 13.1602V6.83979C2.91667 6.56632 2.98257 6.31583 3.11437 6.08833C3.24618 5.86083 3.43139 5.67757 3.67 5.53854L9.24687 2.32854C9.37507 2.2591 9.49833 2.20757 9.61667 2.17396C9.735 2.14021 9.86264 2.12333 9.99958 2.12333C10.1367 2.12333 10.2679 2.14021 10.3933 2.17396C10.5189 2.20757 10.6388 2.2591 10.7531 2.32854L16.33 5.53854C16.5686 5.67757 16.7538 5.86083 16.8856 6.08833C17.0174 6.31583 17.0833 6.56632 17.0833 6.83979V9.31083C17.0833 9.48792 17.0234 9.63639 16.9035 9.75625C16.7837 9.87597 16.6352 9.93583 16.4581 9.93583C16.2809 9.93583 16.1325 9.87597 16.0129 9.75625C15.8932 9.63639 15.8333 9.48792 15.8333 9.31083V7.34292L10.7323 10.2869C10.4934 10.4235 10.2419 10.4919 9.97792 10.4919C9.71375 10.4919 9.46312 10.4235 9.22604 10.2869L4.16667 7.34292V13.1475C4.16667 13.1901 4.17736 13.2302 4.19875 13.2677C4.22014 13.3051 4.25215 13.3371 4.29479 13.3638L9.11062 16.1667C9.20437 16.2188 9.27986 16.2917 9.33708 16.3856C9.39444 16.4794 9.42312 16.5835 9.42312 16.6981C9.42312 16.9378 9.32028 17.1162 9.11458 17.2331C8.90889 17.3501 8.70187 17.3509 8.49354 17.2356L3.67 14.4615C3.43139 14.3224 3.24618 14.1392 3.11437 13.9117C2.98257 13.6842 2.91667 13.4337 2.91667 13.1602ZM15 19.4792C13.9594 19.4792 13.0743 19.1143 12.3446 18.3846C11.6149 17.6549 11.25 16.7697 11.25 15.7292C11.25 14.6886 11.6149 13.8035 12.3446 13.0737C13.0743 12.344 13.9594 11.9792 15 11.9792C16.0406 11.9792 16.9257 12.344 17.6554 13.0737C18.3851 13.8035 18.75 14.6886 18.75 15.7292C18.75 16.7697 18.3851 17.6549 17.6554 18.3846C16.9257 19.1143 16.0406 19.4792 15 19.4792ZM15.3685 15.6058V13.6698C15.3685 13.5716 15.3317 13.4856 15.2579 13.4119C15.1843 13.3381 15.0983 13.3013 15 13.3013C14.9017 13.3013 14.8157 13.3381 14.7421 13.4119C14.6683 13.4856 14.6315 13.5716 14.6315 13.6698V15.5898C14.6315 15.6878 14.6496 15.7828 14.6858 15.8748C14.7222 15.9667 14.7794 16.0517 14.8573 16.1298L16.1154 17.3877C16.1881 17.4605 16.2733 17.4982 16.371 17.5008C16.4688 17.5035 16.5567 17.4658 16.6346 17.3877C16.7126 17.3098 16.7517 17.2233 16.7517 17.1281C16.7517 17.0331 16.7126 16.9466 16.6346 16.8685L15.3685 15.6058Z" fill="#BB4D00"/>
</g>
</svg>
