<svg preserveAspectRatio="none" width="100%" height="100%" overflow="visible" style="display: block;" viewBox="0 0 50 50" fill="none" xmlns="http://www.w3.org/2000/svg">
<g id="fingerprint_24dp_5F6368_FILL0_wght300_GRAD0_opsz24 1">
<path id="Vector" d="M25.012 9.42292C28.6828 9.42292 32.146 10.2128 35.4016 11.7927C38.6568 13.3726 41.3715 15.649 43.5458 18.6219C43.7622 18.8941 43.8302 19.1418 43.75 19.3651C43.6698 19.588 43.5323 19.7729 43.3375 19.9198C43.1424 20.0667 42.9229 20.1321 42.6792 20.1161C42.4354 20.1005 42.2221 19.9656 42.0391 19.7115C40.1026 16.9764 37.6262 14.8851 34.6099 13.4375C31.5939 11.9899 28.3946 11.2661 25.012 11.2661C21.6439 11.2661 18.4776 11.9965 15.513 13.4573C12.5481 14.9184 10.0868 17.0031 8.12917 19.7115C7.93403 19.9972 7.71094 20.1509 7.4599 20.1724C7.20885 20.1936 6.98576 20.1241 6.79063 19.9641C6.59445 19.8172 6.47535 19.6335 6.43333 19.413C6.39132 19.1925 6.45434 18.9635 6.6224 18.726C8.78872 15.8014 11.4823 13.5198 14.7031 11.8812C17.9243 10.2424 21.3606 9.42292 25.012 9.42292ZM25.013 14.3187C29.6731 14.3187 33.6771 15.8717 37.025 18.9776C40.3733 22.0835 42.0474 25.9313 42.0474 30.5208C42.0474 32.2285 41.4427 33.6543 40.2333 34.7984C39.024 35.9425 37.5507 36.5146 35.8135 36.5146C34.0826 36.5146 32.5936 35.9425 31.3464 34.7984C30.0988 33.6543 29.475 32.2285 29.475 30.5208C29.475 29.3483 29.0399 28.358 28.1698 27.55C27.2993 26.742 26.2601 26.338 25.0521 26.338C23.8333 26.338 22.7847 26.7403 21.9063 27.5448C21.0281 28.349 20.5891 29.341 20.5891 30.5208C20.5891 33.9288 21.6007 36.7747 23.624 39.0583C25.6472 41.342 28.2387 42.9352 31.3984 43.838C31.678 43.9297 31.8681 44.0825 31.9688 44.2964C32.0691 44.5102 32.0846 44.7394 32.0151 44.9839C31.9457 45.1977 31.8201 45.3847 31.6385 45.5448C31.4569 45.7052 31.2167 45.7507 30.9177 45.6813C27.3597 44.7785 24.4417 42.9913 22.1635 40.3198C19.8851 37.6479 18.7458 34.3816 18.7458 30.5208C18.7458 28.8115 19.3642 27.3799 20.601 26.226C21.8375 25.0722 23.3217 24.4953 25.0536 24.4953C26.7852 24.4953 28.2622 25.0722 29.4844 26.226C30.7069 27.3799 31.3182 28.8115 31.3182 30.5208C31.3182 31.7007 31.7635 32.6927 32.6542 33.4969C33.5448 34.3014 34.5958 34.7036 35.8073 34.7036C37.0184 34.7036 38.054 34.2997 38.9141 33.4917C39.7741 32.6837 40.2042 31.6934 40.2042 30.5208C40.2042 26.459 38.7132 23.0451 35.7312 20.2792C32.749 17.5128 29.1879 16.1297 25.0479 16.1297C20.908 16.1297 17.3524 17.5148 14.3813 20.2849C11.4097 23.055 9.92396 26.4563 9.92396 30.4885C9.92396 31.3288 10.0122 32.379 10.1885 33.6391C10.3646 34.8988 10.7411 36.362 11.3182 38.0286C11.4089 38.3012 11.4035 38.5424 11.3021 38.7521C11.2007 38.9618 11.0245 39.1188 10.7734 39.2229C10.5224 39.3271 10.2833 39.3247 10.0563 39.2156C9.82917 39.1063 9.67014 38.9271 9.57917 38.6781C9.04514 37.2837 8.66198 35.9248 8.42969 34.6016C8.19705 33.278 8.08073 31.9177 8.08073 30.5208C8.08073 25.9313 9.74635 22.0835 13.0776 18.9776C16.4089 15.8717 20.3873 14.3187 25.013 14.3187ZM25.0521 4.31875C27.2566 4.31875 29.4096 4.58785 31.5109 5.12604C33.6123 5.66423 35.6448 6.4368 37.6083 7.44375C37.9073 7.60417 38.0795 7.79583 38.125 8.01875C38.1705 8.24167 38.1477 8.46146 38.0568 8.67812C37.9661 8.89444 37.8092 9.05868 37.5859 9.17083C37.363 9.28299 37.1113 9.26563 36.8307 9.11875C35.004 8.14097 33.0998 7.40382 31.1182 6.90729C29.1366 6.41042 27.1113 6.16198 25.0422 6.16198C23.0082 6.16198 21.0123 6.40972 19.0547 6.90521C17.0967 7.40069 15.2123 8.13854 13.4016 9.11875C13.1905 9.25208 12.9627 9.28212 12.7182 9.20885C12.4738 9.13524 12.2955 8.97969 12.1833 8.74219C12.0712 8.50434 12.0399 8.28264 12.0896 8.07708C12.1389 7.87118 12.2823 7.69479 12.5198 7.54792C14.451 6.49305 16.4757 5.69114 18.5938 5.14219C20.7118 4.59323 22.8646 4.31875 25.0521 4.31875ZM25.0531 19.3911C28.2549 19.3911 31.0023 20.4628 33.2953 22.6062C35.5884 24.7497 36.7349 27.3878 36.7349 30.5208C36.7349 30.7972 36.6503 31.02 36.4813 31.1891C36.3125 31.3578 36.0899 31.4422 35.8135 31.4422C35.5757 31.4422 35.3627 31.3578 35.1745 31.1891C34.9859 31.02 34.8917 30.7972 34.8917 30.5208C34.8917 27.8899 33.9184 25.6844 31.9719 23.9042C30.025 22.124 27.7186 21.2339 25.0526 21.2339C22.3866 21.2339 20.0908 22.124 18.1651 23.9042C16.2394 25.6844 15.2766 27.8894 15.2766 30.5193C15.2766 33.3595 15.7693 35.7639 16.7547 37.7323C17.7405 39.7007 19.1708 41.6866 21.0458 43.6901C21.2542 43.9009 21.3483 44.1285 21.3281 44.3729C21.308 44.6174 21.2139 44.8238 21.0458 44.9922C20.8642 45.1738 20.6512 45.2679 20.4068 45.2745C20.1623 45.2811 19.9425 45.187 19.7474 44.9922C17.7391 42.8661 16.1847 40.6799 15.0844 38.4333C13.9837 36.1872 13.4333 33.5495 13.4333 30.5203C13.4333 27.3877 14.5694 24.7497 16.8417 22.6062C19.1142 20.4628 21.8514 19.3911 25.0531 19.3911ZM24.976 29.5995C25.251 29.5995 25.474 29.6917 25.6448 29.876C25.816 30.0601 25.9016 30.275 25.9016 30.5208C25.9016 33.166 26.849 35.3351 28.7438 37.0281C30.6389 38.7208 32.8566 39.5672 35.3969 39.5672C35.6719 39.5672 36.0003 39.5498 36.3823 39.5151C36.7642 39.4804 37.1568 39.4283 37.5599 39.3589C37.8193 39.303 38.0417 39.3398 38.2271 39.4693C38.4128 39.5988 38.5405 39.801 38.6099 40.076C38.6793 40.3208 38.6339 40.5349 38.4734 40.7182C38.3134 40.9019 38.1078 41.0285 37.8568 41.0979C37.3519 41.2313 36.8717 41.3167 36.4161 41.3542C35.9609 41.3917 35.6212 41.4104 35.3969 41.4104C32.3465 41.4104 29.6943 40.3781 27.4401 38.3135C25.1856 36.2493 24.0583 33.6517 24.0583 30.5208C24.0583 30.275 24.1425 30.0601 24.3109 29.876C24.479 29.6917 24.7007 29.5995 24.976 29.5995Z" fill="#24315D"/>
</g>
</svg>
