<svg preserveAspectRatio="none" width="100%" height="100%" overflow="visible" style="display: block;" viewBox="0 0 24 24" fill="none" xmlns="http://www.w3.org/2000/svg">
<g id="fingerprint_24dp_5F6368_FILL0_wght300_GRAD0_opsz24 1">
<path id="Vector" d="M12.0058 4.523C13.7678 4.523 15.4301 4.90217 16.9928 5.6605C18.5553 6.41883 19.8583 7.5115 20.902 8.9385C21.0058 9.06917 21.0385 9.18808 21 9.29525C20.9615 9.40225 20.8955 9.491 20.802 9.5615C20.7083 9.632 20.603 9.66342 20.486 9.65575C20.369 9.64825 20.2666 9.5835 20.1788 9.4615C19.2493 8.14867 18.0606 7.14483 16.6128 6.45C15.1651 5.75517 13.6294 5.40775 12.0058 5.40775C10.3891 5.40775 8.86925 5.75833 7.44625 6.4595C6.02308 7.16083 4.84167 8.1615 3.902 9.4615C3.80833 9.59867 3.70125 9.67242 3.58075 9.68275C3.46025 9.69292 3.35317 9.65958 3.2595 9.58275C3.16533 9.51225 3.10817 9.42408 3.088 9.31825C3.06783 9.21242 3.09808 9.1025 3.17875 8.9885C4.21858 7.58467 5.5115 6.4895 7.0575 5.703C8.60367 4.91633 10.2531 4.523 12.0058 4.523ZM12.0063 6.873C14.2431 6.873 16.165 7.61842 17.772 9.10925C19.3792 10.6001 20.1827 12.447 20.1827 14.65C20.1827 15.4697 19.8925 16.1541 19.312 16.7033C18.7315 17.2524 18.0243 17.527 17.1905 17.527C16.3597 17.527 15.6449 17.2524 15.0462 16.7033C14.4474 16.1541 14.148 15.4697 14.148 14.65C14.148 14.0872 13.9392 13.6118 13.5215 13.224C13.1037 12.8362 12.6048 12.6423 12.025 12.6423C11.44 12.6423 10.9367 12.8353 10.515 13.2215C10.0935 13.6075 9.88275 14.0837 9.88275 14.65C9.88275 16.2858 10.3683 17.6518 11.3395 18.748C12.3107 19.8442 13.5546 20.6089 15.0712 21.0423C15.2054 21.0863 15.2967 21.1596 15.345 21.2622C15.3932 21.3649 15.4006 21.4749 15.3673 21.5923C15.3339 21.6949 15.2737 21.7847 15.1865 21.8615C15.0993 21.9385 14.984 21.9603 14.8405 21.927C13.1327 21.4937 11.732 20.6358 10.6385 19.3535C9.54483 18.071 8.998 16.5032 8.998 14.65C8.998 13.8295 9.29483 13.1423 9.8885 12.5885C10.482 12.0347 11.1944 11.7577 12.0258 11.7577C12.8569 11.7577 13.5658 12.0347 14.1525 12.5885C14.7393 13.1423 15.0328 13.8295 15.0328 14.65C15.0328 15.2163 15.2465 15.6925 15.674 16.0785C16.1015 16.4647 16.606 16.6578 17.1875 16.6578C17.7688 16.6578 18.2659 16.4638 18.6788 16.076C19.0916 15.6882 19.298 15.2128 19.298 14.65C19.298 12.7003 18.5823 11.0617 17.151 9.734C15.7195 8.40617 14.0102 7.74225 12.023 7.74225C10.0358 7.74225 8.32917 8.40708 6.903 9.73675C5.47667 11.0664 4.7635 12.699 4.7635 14.6345C4.7635 15.0378 4.80583 15.5419 4.8905 16.1467C4.975 16.7514 5.15575 17.4537 5.43275 18.2537C5.47625 18.3846 5.47367 18.5003 5.425 18.601C5.37633 18.7017 5.29175 18.777 5.17125 18.827C5.05075 18.877 4.936 18.8758 4.827 18.8235C4.718 18.771 4.64167 18.685 4.598 18.5655C4.34167 17.8962 4.15775 17.2439 4.04625 16.6088C3.93458 15.9734 3.87875 15.3205 3.87875 14.65C3.87875 12.447 4.67825 10.6001 6.27725 9.10925C7.87625 7.61842 9.78592 6.873 12.0063 6.873ZM12.025 2.073C13.0832 2.073 14.1166 2.20217 15.1253 2.4605C16.1339 2.71883 17.1095 3.08967 18.052 3.573C18.1955 3.65 18.2782 3.742 18.3 3.849C18.3218 3.956 18.3109 4.0615 18.2672 4.1655C18.2237 4.26933 18.1484 4.34817 18.0413 4.402C17.9343 4.45583 17.8134 4.4475 17.6788 4.377C16.8019 3.90767 15.8879 3.55383 14.9367 3.3155C13.9856 3.077 13.0134 2.95775 12.0203 2.95775C11.0439 2.95775 10.0859 3.07667 9.14625 3.3145C8.20642 3.55233 7.30192 3.9065 6.43275 4.377C6.33142 4.441 6.22208 4.45542 6.10475 4.42025C5.98742 4.38492 5.90183 4.31025 5.848 4.19625C5.79417 4.08208 5.77917 3.97567 5.803 3.877C5.82667 3.77817 5.8955 3.6935 6.0095 3.623C6.9365 3.11667 7.90833 2.73175 8.925 2.46825C9.94167 2.20475 10.975 2.073 12.025 2.073ZM12.0255 9.30775C13.5623 9.30775 14.8811 9.82217 15.9818 10.851C17.0824 11.8798 17.6327 13.1462 17.6327 14.65C17.6327 14.7827 17.5922 14.8896 17.511 14.9708C17.43 15.0518 17.3232 15.0923 17.1905 15.0923C17.0763 15.0923 16.9741 15.0518 16.8837 14.9708C16.7932 14.8896 16.748 14.7827 16.748 14.65C16.748 13.3872 16.2808 12.3285 15.3465 11.474C14.412 10.6195 13.3049 10.1923 12.0253 10.1923C10.7456 10.1923 9.64358 10.6195 8.71925 11.474C7.79492 12.3285 7.33275 13.3869 7.33275 14.6493C7.33275 16.0126 7.56925 17.1667 8.04225 18.1115C8.51542 19.0563 9.202 20.0096 10.102 20.9712C10.202 21.0724 10.2472 21.1817 10.2375 21.299C10.2278 21.4163 10.1827 21.5154 10.102 21.5962C10.0148 21.6834 9.91258 21.7286 9.79525 21.7318C9.67792 21.7349 9.57242 21.6897 9.47875 21.5962C8.51475 20.5757 7.76867 19.5263 7.2405 18.448C6.71217 17.3698 6.448 16.1037 6.448 14.6497C6.448 13.1461 6.99333 11.8798 8.084 10.851C9.17483 9.82217 10.4887 9.30775 12.0255 9.30775ZM11.9885 14.2078C12.1205 14.2078 12.2275 14.252 12.3095 14.3405C12.3917 14.4288 12.4328 14.532 12.4328 14.65C12.4328 15.9197 12.8875 16.9608 13.797 17.7735C14.7067 18.586 15.7712 18.9923 16.9905 18.9923C17.1225 18.9923 17.2802 18.9839 17.4635 18.9673C17.6468 18.9506 17.8353 18.9256 18.0288 18.8923C18.1533 18.8654 18.26 18.8831 18.349 18.9453C18.4382 19.0074 18.4994 19.1045 18.5327 19.2365C18.5661 19.354 18.5442 19.4567 18.4672 19.5447C18.3904 19.6329 18.2917 19.6937 18.1712 19.727C17.9289 19.791 17.6984 19.832 17.4797 19.85C17.2612 19.868 17.0982 19.877 16.9905 19.877C15.5263 19.877 14.2532 19.3815 13.1712 18.3905C12.0891 17.3997 11.548 16.1528 11.548 14.65C11.548 14.532 11.5884 14.4288 11.6693 14.3405C11.7499 14.252 11.8563 14.2078 11.9885 14.2078Z" fill="#24315D"/>
</g>
</svg>
