<svg preserveAspectRatio="none" width="100%" height="100%" overflow="visible" style="display: block;" viewBox="0 0 30 30" fill="none" xmlns="http://www.w3.org/2000/svg">
<g id="history_24dp_5F6368_FILL0_wght300_GRAD0_opsz24 1">
<path id="Vector" d="M14.9759 25.625C12.4632 25.625 10.2485 24.8581 8.33187 23.3244C6.41521 21.7908 5.18677 19.8285 4.64656 17.4375C4.57927 17.1892 4.61979 16.9608 4.76813 16.7525C4.91625 16.5442 5.12615 16.4231 5.39781 16.3894C5.65344 16.3558 5.8826 16.4064 6.08531 16.5409C6.28802 16.6755 6.42948 16.8734 6.50969 17.1347C6.98552 19.0657 8.01073 20.651 9.58531 21.8906C11.1599 23.1302 12.9568 23.75 14.9759 23.75C17.4134 23.75 19.4811 22.901 21.1791 21.2031C22.877 19.5052 23.7259 17.4375 23.7259 15C23.7259 12.5625 22.877 10.4948 21.1791 8.79687C19.4811 7.09896 17.4134 6.25 14.9759 6.25C13.6105 6.25 12.3309 6.55333 11.1372 7.16C9.94323 7.76646 8.9151 8.60094 8.05281 9.66344H10.3847C10.6503 9.66344 10.8729 9.75333 11.0525 9.93312C11.2323 10.1129 11.3222 10.3356 11.3222 10.6012C11.3222 10.8671 11.2323 11.0897 11.0525 11.2691C10.8729 11.4486 10.6503 11.5384 10.3847 11.5384H6.10594C5.78573 11.5384 5.5174 11.4301 5.30094 11.2134C5.08427 10.997 4.97594 10.7286 4.97594 10.4084V6.12969C4.97594 5.86406 5.06583 5.64146 5.24562 5.46188C5.42542 5.28208 5.64823 5.19219 5.91406 5.19219C6.17969 5.19219 6.40229 5.28208 6.58187 5.46188C6.76125 5.64146 6.85094 5.86406 6.85094 6.12969V8.15375C7.86531 6.95667 9.0801 6.0276 10.4953 5.36656C11.9103 4.70552 13.4039 4.375 14.9759 4.375C16.4509 4.375 17.8325 4.65385 19.1206 5.21156C20.4087 5.76927 21.532 6.52729 22.4903 7.48562C23.4486 8.44396 24.2067 9.56708 24.7644 10.855C25.3221 12.1431 25.6009 13.5246 25.6009 14.9994C25.6009 16.4742 25.3221 17.8557 24.7644 19.1441C24.2067 20.4326 23.4486 21.556 22.4903 22.5144C21.532 23.4727 20.4087 24.2307 19.1206 24.7884C17.8325 25.3461 16.4509 25.625 14.9759 25.625ZM15.9494 14.6203L19.3869 18.0578C19.56 18.2307 19.6485 18.4482 19.6525 18.7103C19.6567 18.9724 19.5681 19.194 19.3869 19.375C19.2058 19.556 18.9864 19.6466 18.7284 19.6466C18.4703 19.6466 18.2507 19.556 18.0697 19.375L14.4134 15.7187C14.2966 15.6017 14.2108 15.4742 14.1562 15.3362C14.1019 15.1983 14.0747 15.0558 14.0747 14.9087V9.6875C14.0747 9.42187 14.1645 9.19917 14.3441 9.01937C14.5239 8.83979 14.7467 8.75 15.0125 8.75C15.2781 8.75 15.5007 8.83979 15.6803 9.01937C15.8597 9.19917 15.9494 9.42187 15.9494 9.6875V14.6203Z" fill="white"/>
</g>
</svg>
