<svg preserveAspectRatio="none" width="100%" height="100%" overflow="visible" style="display: block;" viewBox="0 0 18 18" fill="none" xmlns="http://www.w3.org/2000/svg">
<g id="home_24dp_5F6368_FILL0_wght300_GRAD0_opsz24 2">
<path id="Vector" d="M3.375 14.25V7.61531C3.375 7.40069 3.423 7.19737 3.519 7.00537C3.61512 6.81325 3.74787 6.65506 3.91725 6.53081L8.18663 3.31444C8.4235 3.13369 8.69425 3.04331 8.99888 3.04331C9.3035 3.04331 9.575 3.13369 9.81338 3.31444L14.0828 6.53081C14.2521 6.65506 14.3849 6.81325 14.481 7.00537C14.577 7.19737 14.625 7.40069 14.625 7.61531V14.25C14.625 14.5568 14.5142 14.8209 14.2926 15.0426C14.0709 15.2642 13.8068 15.375 13.5 15.375H10.5433C10.3512 15.375 10.1902 15.31 10.0603 15.18C9.93031 15.0501 9.86531 14.8891 9.86531 14.697V10.9183H8.13469V14.697C8.13469 14.8891 8.06969 15.0501 7.93969 15.18C7.80981 15.31 7.64881 15.375 7.45669 15.375H4.5C4.19325 15.375 3.92906 15.2642 3.70744 15.0426C3.48581 14.8209 3.375 14.5568 3.375 14.25Z" fill="#0089FF"/>
</g>
</svg>
