<svg preserveAspectRatio="none" width="100%" height="100%" overflow="visible" style="display: block;" viewBox="0 0 18 18" fill="none" xmlns="http://www.w3.org/2000/svg">
<g id="home_24dp_5F6368_FILL0_wght300_GRAD0_opsz24 1">
<path id="Vector" d="M4.5 14.25H7.00969V10.4711C7.00969 10.2791 7.07462 10.1181 7.2045 9.98813C7.3345 9.85825 7.4955 9.79331 7.6875 9.79331H10.3125C10.5045 9.79331 10.6655 9.85825 10.7955 9.98813C10.9254 10.1181 10.9903 10.2791 10.9903 10.4711V14.25H13.5V7.61531C13.5 7.57694 13.4916 7.54213 13.4747 7.51088C13.4579 7.47963 13.4351 7.45194 13.4062 7.42781L9.13706 4.21875C9.09856 4.18512 9.05288 4.16831 9 4.16831C8.94712 4.16831 8.90144 4.18512 8.86294 4.21875L4.59375 7.42781C4.56487 7.45194 4.54206 7.47963 4.52531 7.51088C4.50844 7.54213 4.5 7.57694 4.5 7.61531V14.25ZM3.375 14.25V7.61531C3.375 7.40069 3.423 7.19737 3.519 7.00537C3.61512 6.81325 3.74787 6.65506 3.91725 6.53081L8.18663 3.31444C8.4235 3.13369 8.69425 3.04331 8.99888 3.04331C9.3035 3.04331 9.575 3.13369 9.81338 3.31444L14.0828 6.53081C14.2521 6.65506 14.3849 6.81325 14.481 7.00537C14.577 7.19737 14.625 7.40069 14.625 7.61531V14.25C14.625 14.5568 14.5142 14.8209 14.2926 15.0426C14.0709 15.2642 13.8068 15.375 13.5 15.375H10.5433C10.3512 15.375 10.1902 15.31 10.0603 15.18C9.93031 15.0501 9.86531 14.8891 9.86531 14.697V10.9183H8.13469V14.697C8.13469 14.8891 8.06969 15.0501 7.93969 15.18C7.80981 15.31 7.64881 15.375 7.45669 15.375H4.5C4.19325 15.375 3.92906 15.2642 3.70744 15.0426C3.48581 14.8209 3.375 14.5568 3.375 14.25Z" fill="#6C7490"/>
</g>
</svg>
