<svg preserveAspectRatio="none" width="100%" height="100%" overflow="visible" style="display: block;" viewBox="0 0 18 18" fill="none" xmlns="http://www.w3.org/2000/svg">
<g id="call_quality_24dp_5F6368_FILL0_wght300_GRAD0_opsz24 1">
<path id="Vector" d="M13.8302 16.125C12.4168 16.125 10.9969 15.7964 9.57038 15.1391C8.144 14.4819 6.83344 13.5547 5.63869 12.3577C4.44406 11.1606 3.51812 9.85 2.86087 8.42588C2.20362 7.00188 1.875 5.58319 1.875 4.16981C1.875 3.94269 1.95 3.75344 2.1 3.60206C2.25 3.45069 2.4375 3.375 2.6625 3.375H5.10862C5.298 3.375 5.46506 3.43681 5.60981 3.56044C5.75456 3.68394 5.84663 3.83656 5.886 4.01831L6.31594 6.225C6.34569 6.42975 6.33944 6.60569 6.29719 6.75281C6.25481 6.89994 6.17881 7.0235 6.06919 7.1235L4.33706 8.80969C4.61581 9.32019 4.93431 9.80312 5.29256 10.2585C5.65069 10.7138 6.03844 11.1486 6.45581 11.5629C6.86731 11.9746 7.30481 12.3568 7.76831 12.7097C8.23181 13.0626 8.73231 13.3909 9.26981 13.6948L10.9528 11.9972C11.0702 11.8751 11.2123 11.7894 11.3792 11.7403C11.5459 11.6913 11.7193 11.6793 11.8991 11.7043L13.9817 12.1284C14.1711 12.1784 14.3256 12.2751 14.4454 12.4183C14.5651 12.5616 14.625 12.7241 14.625 12.9058V15.3375C14.625 15.5625 14.5493 15.75 14.3979 15.9C14.2466 16.05 14.0573 16.125 13.8302 16.125ZM3.80475 7.74525L5.14331 6.46444C5.16731 6.44519 5.18294 6.41875 5.19019 6.38512C5.19744 6.3515 5.19625 6.32025 5.18662 6.29137L4.86056 4.61531C4.85094 4.57694 4.83413 4.54812 4.81013 4.52887C4.78613 4.50962 4.75487 4.5 4.71637 4.5H3.1125C3.08362 4.5 3.05956 4.50962 3.04031 4.52887C3.02119 4.54812 3.01162 4.57219 3.01162 4.60106C3.05 5.11356 3.13387 5.63419 3.26325 6.16294C3.3925 6.69181 3.573 7.21925 3.80475 7.74525ZM10.3297 14.2269C10.8269 14.4587 11.3454 14.6359 11.8853 14.7585C12.4253 14.881 12.9298 14.9538 13.3989 14.9769C13.4278 14.9769 13.4519 14.9673 13.4711 14.9481C13.4904 14.9288 13.5 14.9048 13.5 14.8759V13.2981C13.5 13.2596 13.4904 13.2283 13.4711 13.2043C13.4519 13.1803 13.4231 13.1635 13.3847 13.1539L11.8097 12.8336C11.7808 12.824 11.7556 12.8228 11.7339 12.8301C11.7123 12.8373 11.6894 12.8529 11.6653 12.8769L10.3297 14.2269ZM12.5636 9C11.5783 9 10.738 8.65275 10.0429 7.95825C9.34762 7.26375 9 6.42387 9 5.43862C9 4.45325 9.34725 3.613 10.0418 2.91787C10.7363 2.22262 11.5761 1.875 12.5614 1.875C13.5468 1.875 14.387 2.22225 15.0821 2.91675C15.7774 3.61125 16.125 4.45112 16.125 5.43637C16.125 6.42175 15.7778 7.262 15.0833 7.95713C14.3888 8.65238 13.5489 9 12.5636 9ZM12.5625 7.64419C12.651 7.64419 12.7284 7.61106 12.7946 7.54481C12.861 7.47844 12.8942 7.401 12.8942 7.3125V5.13469C12.8942 5.04619 12.861 4.96875 12.7946 4.90238C12.7284 4.83613 12.651 4.803 12.5625 4.803C12.474 4.803 12.3966 4.83613 12.3302 4.90238C12.2639 4.96875 12.2308 5.04619 12.2308 5.13469V7.3125C12.2308 7.401 12.2639 7.47844 12.3302 7.54481C12.3966 7.61106 12.474 7.64419 12.5625 7.64419ZM12.5625 4.00969C12.6625 4.00969 12.75 3.97219 12.825 3.89719C12.9 3.82219 12.9375 3.73469 12.9375 3.63469C12.9375 3.53469 12.9 3.44719 12.825 3.37219C12.75 3.29719 12.6625 3.25969 12.5625 3.25969C12.4625 3.25969 12.375 3.29719 12.3 3.37219C12.225 3.44719 12.1875 3.53469 12.1875 3.63469C12.1875 3.73469 12.225 3.82219 12.3 3.89719C12.375 3.97219 12.4625 4.00969 12.5625 4.00969Z" fill="#6C7490"/>
</g>
</svg>
