<svg preserveAspectRatio="none" width="100%" height="100%" overflow="visible" style="display: block;" viewBox="0 0 18 18" fill="none" xmlns="http://www.w3.org/2000/svg">
<g id="news_24dp_5F6368_FILL0_wght300_GRAD0_opsz24 1">
<path id="Vector" d="M3.98081 15.375C3.60194 15.375 3.28125 15.2438 3.01875 14.9813C2.75625 14.7188 2.625 14.3981 2.625 14.0192V3.98081C2.625 3.60194 2.75625 3.28125 3.01875 3.01875C3.28125 2.75625 3.60194 2.625 3.98081 2.625H11.2802C11.4611 2.625 11.6349 2.66012 11.8016 2.73037C11.9685 2.8005 12.1134 2.89713 12.2364 3.02025L14.9797 5.76356C15.1029 5.88656 15.1995 6.0315 15.2696 6.19838C15.3399 6.36513 15.375 6.53894 15.375 6.71981V14.0192C15.375 14.3981 15.2438 14.7188 14.9813 14.9813C14.7188 15.2438 14.3981 15.375 14.0192 15.375H3.98081ZM3.98081 14.25H14.0192C14.0866 14.25 14.1419 14.2284 14.1851 14.1851C14.2284 14.1419 14.25 14.0866 14.25 14.0192V6.75H11.9278C11.7346 6.75 11.5733 6.68531 11.4441 6.55594C11.3147 6.42669 11.25 6.26544 11.25 6.07219V3.75H3.98081C3.91344 3.75 3.85812 3.77163 3.81487 3.81488C3.77162 3.85813 3.75 3.91344 3.75 3.98081V14.0192C3.75 14.0866 3.77162 14.1419 3.81487 14.1851C3.85812 14.2284 3.91344 14.25 3.98081 14.25ZM12 12.375C12.1596 12.375 12.2933 12.3211 12.4009 12.2134C12.5086 12.1058 12.5625 11.9721 12.5625 11.8125C12.5625 11.6529 12.5086 11.5193 12.4009 11.4116C12.2933 11.3039 12.1596 11.25 12 11.25H6C5.84037 11.25 5.70675 11.3039 5.59912 11.4116C5.49137 11.5193 5.4375 11.6529 5.4375 11.8125C5.4375 11.9721 5.49137 12.1058 5.59912 12.2134C5.70675 12.3211 5.84037 12.375 6 12.375H12ZM8.4375 6.75C8.59712 6.75 8.73075 6.69613 8.83838 6.58838C8.94613 6.48075 9 6.34712 9 6.1875C9 6.02787 8.94613 5.89425 8.83838 5.78662C8.73075 5.67887 8.59712 5.625 8.4375 5.625H6C5.84037 5.625 5.70675 5.67887 5.59912 5.78662C5.49137 5.89425 5.4375 6.02787 5.4375 6.1875C5.4375 6.34712 5.49137 6.48075 5.59912 6.58838C5.70675 6.69613 5.84037 6.75 6 6.75H8.4375ZM12 9.5625C12.1596 9.5625 12.2933 9.50863 12.4009 9.40088C12.5086 9.29325 12.5625 9.15963 12.5625 9C12.5625 8.84038 12.5086 8.70675 12.4009 8.59912C12.2933 8.49137 12.1596 8.4375 12 8.4375H6C5.84037 8.4375 5.70675 8.49137 5.59912 8.59912C5.49137 8.70675 5.4375 8.84038 5.4375 9C5.4375 9.15963 5.49137 9.29325 5.59912 9.40088C5.70675 9.50863 5.84037 9.5625 6 9.5625H12Z" fill="#6C7490"/>
</g>
</svg>
