<svg preserveAspectRatio="none" width="100%" height="100%" overflow="visible" style="display: block;" viewBox="0 0 44 44" fill="none" xmlns="http://www.w3.org/2000/svg">
<g id="Group 399971">
<g id="Ellipse 1" filter="url(#filter0_d_0_44)">
<circle cx="22" cy="21" r="20" fill="white"/>
</g>
<g id="add_24dp_5F6368_FILL0_wght300_GRAD0_opsz24 1">
<path id="Vector" d="M21.0625 21.9375H14.8125C14.5469 21.9375 14.3243 21.8476 14.1447 21.6678C13.9649 21.488 13.875 21.2653 13.875 20.9997C13.875 20.7339 13.9649 20.5112 14.1447 20.3319C14.3243 20.1523 14.5469 20.0625 14.8125 20.0625H21.0625V13.8125C21.0625 13.5469 21.1524 13.3243 21.3322 13.1447C21.512 12.9649 21.7347 12.875 22.0003 12.875C22.2661 12.875 22.4888 12.9649 22.6681 13.1447C22.8477 13.3243 22.9375 13.5469 22.9375 13.8125V20.0625H29.1875C29.4531 20.0625 29.6757 20.1524 29.8553 20.3322C30.0351 20.512 30.125 20.7347 30.125 21.0003C30.125 21.2661 30.0351 21.4888 29.8553 21.6681C29.6757 21.8477 29.4531 21.9375 29.1875 21.9375H22.9375V28.1875C22.9375 28.4531 22.8476 28.6757 22.6678 28.8553C22.488 29.0351 22.2653 29.125 21.9997 29.125C21.7339 29.125 21.5112 29.0351 21.3319 28.8553C21.1523 28.6757 21.0625 28.4531 21.0625 28.1875V21.9375Z" fill="#0089FF"/>
</g>
</g>
<defs>
<filter id="filter0_d_0_44" x="0" y="0" width="44" height="44" filterUnits="userSpaceOnUse" color-interpolation-filters="sRGB">
<feFlood flood-opacity="0" result="BackgroundImageFix"/>
<feColorMatrix in="SourceAlpha" type="matrix" values="0 0 0 0 0 0 0 0 0 0 0 0 0 0 0 0 0 0 127 0" result="hardAlpha"/>
<feOffset dy="1"/>
<feGaussianBlur stdDeviation="1"/>
<feComposite in2="hardAlpha" operator="out"/>
<feColorMatrix type="matrix" values="0 0 0 0 0 0 0 0 0 0 0 0 0 0 0 0 0 0 0.05 0"/>
<feBlend mode="normal" in2="BackgroundImageFix" result="effect1_dropShadow_0_44"/>
<feBlend mode="normal" in="SourceGraphic" in2="effect1_dropShadow_0_44" result="shape"/>
</filter>
</defs>
</svg>
