<svg preserveAspectRatio="none" width="100%" height="100%" overflow="visible" style="display: block;" viewBox="0 0 18 18" fill="none" xmlns="http://www.w3.org/2000/svg">
<g id="account_circle_24dp_5F6368_FILL1_wght300_GRAD0_opsz24 1">
<path id="Vector" d="M4.51725 12.9692C5.15475 12.4962 5.84925 12.1226 6.60075 11.8485C7.35213 11.5745 8.15188 11.4375 9 11.4375C9.84813 11.4375 10.6479 11.5745 11.3993 11.8485C12.1508 12.1226 12.8453 12.4962 13.4828 12.9692C13.949 12.4567 14.3184 11.8634 14.5911 11.1894C14.8637 10.5154 15 9.78563 15 9C15 7.3375 14.4156 5.92187 13.2469 4.75312C12.0781 3.58437 10.6625 3 9 3C7.3375 3 5.92187 3.58437 4.75312 4.75312C3.58437 5.92187 3 7.3375 3 9C3 9.78563 3.13631 10.5154 3.40894 11.1894C3.68156 11.8634 4.051 12.4567 4.51725 12.9692ZM9 9.5625C8.31538 9.5625 7.738 9.32738 7.26787 8.85713C6.79762 8.387 6.5625 7.80962 6.5625 7.125C6.5625 6.44037 6.79762 5.863 7.26787 5.39287C7.738 4.92262 8.31538 4.6875 9 4.6875C9.68463 4.6875 10.262 4.92262 10.7321 5.39287C11.2024 5.863 11.4375 6.44037 11.4375 7.125C11.4375 7.80962 11.2024 8.387 10.7321 8.85713C10.262 9.32738 9.68463 9.5625 9 9.5625ZM9 16.125C8.01063 16.125 7.0825 15.9389 6.21562 15.5668C5.34875 15.1947 4.59469 14.6879 3.95344 14.0466C3.31206 13.4053 2.80531 12.6513 2.43319 11.7844C2.06106 10.9175 1.875 9.98938 1.875 9C1.875 8.01063 2.06106 7.0825 2.43319 6.21562C2.80531 5.34875 3.31206 4.59469 3.95344 3.95344C4.59469 3.31206 5.34875 2.80531 6.21562 2.43319C7.0825 2.06106 8.01063 1.875 9 1.875C9.98938 1.875 10.9175 2.06106 11.7844 2.43319C12.6513 2.80531 13.4053 3.31206 14.0466 3.95344C14.6879 4.59469 15.1947 5.34875 15.5668 6.21562C15.9389 7.0825 16.125 8.01063 16.125 9C16.125 9.98938 15.9389 10.9175 15.5668 11.7844C15.1947 12.6513 14.6879 13.4053 14.0466 14.0466C13.4053 14.6879 12.6513 15.1947 11.7844 15.5668C10.9175 15.9389 9.98938 16.125 9 16.125Z" fill="#0089FF"/>
</g>
</svg>
