<svg preserveAspectRatio="none" width="100%" height="100%" overflow="visible" style="display: block;" viewBox="0 0 20 20" fill="none" xmlns="http://www.w3.org/2000/svg">
<g id="local_shipping_24dp_5F6368_FILL0_wght300_GRAD0_opsz24 1">
<path id="Vector" d="M4.87 16.2981C4.21944 16.2981 3.66715 16.0706 3.21312 15.6156C2.7591 15.1606 2.53208 14.6082 2.53208 13.9583H1.875C1.66167 13.9583 1.48278 13.8862 1.33833 13.7419C1.19403 13.5974 1.12187 13.4185 1.12187 13.2052V5.25646C1.12187 4.83549 1.26771 4.47917 1.55937 4.1875C1.85104 3.89583 2.20729 3.75 2.62812 3.75H12.4679C12.8822 3.75 13.2369 3.8975 13.5319 4.1925C13.8269 4.4875 13.9744 4.84215 13.9744 5.25646V6.92312H15.4327C15.6712 6.92312 15.8972 6.97646 16.1106 7.08312C16.324 7.18979 16.4997 7.33729 16.6377 7.52562L18.7275 10.3237C18.7778 10.3865 18.8155 10.4556 18.8406 10.5308C18.8656 10.6062 18.8781 10.6878 18.8781 10.7756V13.2052C18.8781 13.4185 18.806 13.5974 18.6617 13.7419C18.5172 13.8862 18.3383 13.9583 18.125 13.9583H17.3719C17.3719 14.6082 17.1442 15.1606 16.6887 15.6156C16.2335 16.0706 15.6806 16.2981 15.0302 16.2981C14.3798 16.2981 13.8275 16.0706 13.3733 15.6156C12.9193 15.1606 12.6923 14.6082 12.6923 13.9583H7.21146C7.21146 14.61 6.98382 15.1628 6.52854 15.6169C6.07326 16.071 5.52042 16.2981 4.87 16.2981ZM4.87187 15.0481C5.17743 15.0481 5.43542 14.9428 5.64583 14.7323C5.85625 14.5219 5.96146 14.2639 5.96146 13.9583C5.96146 13.6528 5.85625 13.3947 5.64583 13.1842C5.43542 12.9737 5.17743 12.8685 4.87187 12.8685C4.56632 12.8685 4.30826 12.9737 4.09771 13.1842C3.88729 13.3947 3.78208 13.6528 3.78208 13.9583C3.78208 14.2639 3.88729 14.5219 4.09771 14.7323C4.30826 14.9428 4.56632 15.0481 4.87187 15.0481ZM2.37187 12.7083H2.97437C3.15174 12.3996 3.40785 12.1408 3.74271 11.9319C4.07771 11.723 4.4541 11.6185 4.87187 11.6185C5.27882 11.6185 5.65243 11.7217 5.99271 11.9279C6.33299 12.1342 6.59181 12.3943 6.76917 12.7083H12.7244V5.25646C12.7244 5.1816 12.7003 5.12014 12.6523 5.07208C12.6042 5.02403 12.5428 5 12.4679 5H2.62812C2.5641 5 2.50535 5.02674 2.45187 5.08021C2.39854 5.13354 2.37187 5.19229 2.37187 5.25646V12.7083ZM15.0321 15.0481C15.3376 15.0481 15.5956 14.9428 15.806 14.7323C16.0166 14.5219 16.1219 14.2639 16.1219 13.9583C16.1219 13.6528 16.0166 13.3947 15.806 13.1842C15.5956 12.9737 15.3376 12.8685 15.0321 12.8685C14.7265 12.8685 14.4685 12.9737 14.2579 13.1842C14.0475 13.3947 13.9423 13.6528 13.9423 13.9583C13.9423 14.2639 14.0475 14.5219 14.2579 14.7323C14.4685 14.9428 14.7265 15.0481 15.0321 15.0481ZM13.9744 11.0417H17.7083L15.625 8.27729C15.5983 8.24521 15.5676 8.21979 15.5329 8.20104C15.4982 8.18243 15.4594 8.17312 15.4167 8.17312H13.9744V11.0417Z" fill="#1447E6"/>
</g>
</svg>
