<svg preserveAspectRatio="none" width="100%" height="100%" overflow="visible" style="display: block;" viewBox="0 0 20 20" fill="none" xmlns="http://www.w3.org/2000/svg">
<g id="task_alt_24dp_5F6368_FILL0_wght300_GRAD0_opsz24 1">
<path id="Vector" d="M10.0015 17.9167C8.90646 17.9167 7.87722 17.7089 6.91375 17.2933C5.95028 16.8778 5.11222 16.3138 4.39958 15.6015C3.68694 14.8891 3.12271 14.0514 2.70687 13.0883C2.29118 12.1253 2.08333 11.0963 2.08333 10.0015C2.08333 8.90646 2.29118 7.87722 2.70687 6.91375C3.12243 5.95028 3.68646 5.11222 4.39896 4.39958C5.11146 3.68694 5.9493 3.12271 6.9125 2.70687C7.87569 2.29118 8.90486 2.08333 10 2.08333C10.6933 2.08333 11.3653 2.17174 12.016 2.34854C12.6667 2.52535 13.2891 2.78097 13.8831 3.11542C14.0433 3.20514 14.1479 3.33444 14.1971 3.50333C14.2462 3.67208 14.2174 3.82965 14.1106 3.97604C14.0038 4.12243 13.8625 4.21403 13.6867 4.25083C13.511 4.28764 13.3414 4.26118 13.1779 4.17146C12.6907 3.8991 12.1781 3.69132 11.6402 3.54812C11.1023 3.40493 10.5556 3.33333 10 3.33333C8.15278 3.33333 6.57986 3.98264 5.28125 5.28125C3.98264 6.57986 3.33333 8.15278 3.33333 10C3.33333 11.8472 3.98264 13.4201 5.28125 14.7187C6.57986 16.0174 8.15278 16.6667 10 16.6667C11.8472 16.6667 13.4201 16.0174 14.7187 14.7187C16.0174 13.4201 16.6667 11.8472 16.6667 10C16.6667 9.83875 16.6606 9.6825 16.6483 9.53125C16.636 9.38 16.6149 9.22479 16.585 9.06562C16.5572 8.88826 16.5876 8.71868 16.6762 8.55687C16.765 8.39507 16.8985 8.29014 17.0767 8.24208C17.2446 8.19389 17.4003 8.21472 17.544 8.30458C17.6877 8.3943 17.7735 8.52354 17.8012 8.69229C17.8397 8.90271 17.8685 9.11562 17.8877 9.33104C17.907 9.54632 17.9167 9.7693 17.9167 10C17.9167 11.0951 17.7089 12.1243 17.2933 13.0875C16.8778 14.0507 16.3138 14.8885 15.6015 15.601C14.8891 16.3135 14.0514 16.8776 13.0883 17.2931C12.1253 17.7088 11.0963 17.9167 10.0015 17.9167ZM8.81729 11.7885L16.5994 3.99354C16.7148 3.87826 16.8577 3.81715 17.0281 3.81021C17.1984 3.80326 17.3488 3.865 17.4794 3.99542C17.5988 4.115 17.6585 4.26076 17.6585 4.43271C17.6585 4.60465 17.5982 4.75104 17.4775 4.87187L9.34458 13.0177C9.19389 13.1683 9.01812 13.2435 8.81729 13.2435C8.61646 13.2435 8.44069 13.1683 8.29 13.0177L6.00312 10.7308C5.88785 10.6154 5.82882 10.4703 5.82604 10.2956C5.8234 10.121 5.88243 9.97333 6.00312 9.8525C6.12396 9.73181 6.27035 9.67146 6.44229 9.67146C6.61424 9.67146 6.76062 9.73181 6.88146 9.8525L8.81729 11.7885Z" fill="#007A55"/>
</g>
</svg>
