<svg preserveAspectRatio="none" width="100%" height="100%" overflow="visible" style="display: block;" viewBox="0 0 24 24" fill="none" xmlns="http://www.w3.org/2000/svg">
<g id="visibility_24dp_5F6368_FILL0_wght300_GRAD0_opsz24 1">
<path id="Vector" d="M12.0022 15.577C13.1354 15.577 14.0978 15.1804 14.8895 14.3872C15.6812 13.5941 16.077 12.6309 16.077 11.4978C16.077 10.3646 15.6804 9.40217 14.8872 8.6105C14.0941 7.81883 13.1309 7.423 11.9978 7.423C10.8646 7.423 9.90217 7.81958 9.1105 8.61275C8.31883 9.40592 7.923 10.3691 7.923 11.5023C7.923 12.6354 8.31958 13.5978 9.11275 14.3895C9.90592 15.1812 10.8691 15.577 12.0022 15.577ZM12 14.2C11.25 14.2 10.6125 13.9375 10.0875 13.4125C9.5625 12.8875 9.3 12.25 9.3 11.5C9.3 10.75 9.5625 10.1125 10.0875 9.5875C10.6125 9.0625 11.25 8.8 12 8.8C12.75 8.8 13.3875 9.0625 13.9125 9.5875C14.4375 10.1125 14.7 10.75 14.7 11.5C14.7 12.25 14.4375 12.8875 13.9125 13.4125C13.3875 13.9375 12.75 14.2 12 14.2ZM12 18.5C9.89483 18.5 7.9695 17.9384 6.224 16.8152C4.4785 15.6922 3.08525 14.2148 2.04425 12.3828C1.96092 12.2391 1.9 12.0943 1.8615 11.9485C1.82317 11.8027 1.804 11.653 1.804 11.4995C1.804 11.346 1.82317 11.1965 1.8615 11.051C1.9 10.9055 1.96092 10.7609 2.04425 10.6173C3.08525 8.78525 4.4785 7.30775 6.224 6.18475C7.9695 5.06158 9.89483 4.5 12 4.5C14.1052 4.5 16.0305 5.06158 17.776 6.18475C19.5215 7.30775 20.9147 8.78525 21.9557 10.6173C22.0391 10.7609 22.1 10.9057 22.1385 11.0515C22.1768 11.1973 22.196 11.347 22.196 11.5005C22.196 11.654 22.1768 11.8035 22.1385 11.949C22.1 12.0945 22.0391 12.2391 21.9557 12.3828C20.9147 14.2148 19.5215 15.6922 17.776 16.8152C16.0305 17.9384 14.1052 18.5 12 18.5ZM12 17C13.8833 17 15.6125 16.5042 17.1875 15.5125C18.7625 14.5208 19.9667 13.1833 20.8 11.5C19.9667 9.81667 18.7625 8.47917 17.1875 7.4875C15.6125 6.49583 13.8833 6 12 6C10.1167 6 8.3875 6.49583 6.8125 7.4875C5.2375 8.47917 4.03333 9.81667 3.2 11.5C4.03333 13.1833 5.2375 14.5208 6.8125 15.5125C8.3875 16.5042 10.1167 17 12 17Z" fill="#6C7490"/>
</g>
</svg>
